<svg width="31" height="31" viewBox="0 0 31 31" fill="none" xmlns="http://www.w3.org/2000/svg">
<path fill-rule="evenodd" clip-rule="evenodd" d="M26.9254 0.878511C25.7538 -0.293061 23.8543 -0.29306 22.6827 0.878513L15.2444 8.31685L7.80605 0.878512C6.63447 -0.293061 4.73498 -0.29306 3.5634 0.878513L0.878756 3.56316C-0.292817 4.73473 -0.292815 6.63423 0.878758 7.8058L8.31709 15.2441L0.878756 22.6825C-0.292817 23.8541 -0.292815 25.7535 0.878757 26.9251L3.56341 29.6098C4.73498 30.7813 6.63447 30.7813 7.80605 29.6098L15.2444 22.1714L22.6827 29.6098C23.8543 30.7813 25.7538 30.7813 26.9254 29.6098L29.61 26.9251C30.7816 25.7535 30.7816 23.8541 29.61 22.6825L22.1717 15.2441L29.61 7.8058C30.7816 6.63423 30.7816 4.73473 29.61 3.56316L26.9254 0.878511Z" fill="#31C3BD"/>
</svg>
